<?xml version="1.0" encoding="UTF-8" standalone="no"?>
<!-- Created with Inkscape (http://www.inkscape.org/) -->

<svg
   width="9.2714853mm"
   height="9.2714901mm"
   viewBox="0 0 9.2714853 9.2714901"
   version="1.1"
   id="svg5"
   inkscape:version="1.1 (c68e22c387, 2021-05-23)"
   sodipodi:docname="bookmark-icon.svg"
   xmlns:inkscape="http://www.inkscape.org/namespaces/inkscape"
   xmlns:sodipodi="http://sodipodi.sourceforge.net/DTD/sodipodi-0.dtd"
   xmlns="http://www.w3.org/2000/svg"
   xmlns:svg="http://www.w3.org/2000/svg">
  <sodipodi:namedview
     id="namedview7"
     pagecolor="#ffffff"
     bordercolor="#666666"
     borderopacity="1.0"
     inkscape:pageshadow="2"
     inkscape:pageopacity="0.0"
     inkscape:pagecheckerboard="0"
     inkscape:document-units="mm"
     showgrid="false"
     inkscape:zoom="5.3664983"
     inkscape:cx="4.2858487"
     inkscape:cy="36.336544"
     inkscape:window-width="1920"
     inkscape:window-height="1046"
     inkscape:window-x="-11"
     inkscape:window-y="-11"
     inkscape:window-maximized="1"
     inkscape:current-layer="layer1" />
  <defs
     id="defs2" />
  <g
     inkscape:label="Layer 1"
     inkscape:groupmode="layer"
     id="layer1"
     transform="translate(-81.742187,-138.93359)">
    <path
       style="color:#000000;fill:#000000;stroke-linejoin:round;-inkscape-stroke:none"
       d="m 84.416016,140.98242 a 0.19845734,0.19845734 0 0 0 -0.197266,0.19922 v 5.16797 a 0.19845734,0.19845734 0 0 0 0.197266,0.19726 h 0.0059 a 0.19845734,0.19845734 0 0 0 0.0918,-0.0215 l 0.902344,-0.46875 0.8125,-0.42187 0.8125,0.42187 0.902343,0.46875 a 0.19845734,0.19845734 0 0 0 0.0918,0.0215 h 0.0059 a 0.19845734,0.19845734 0 0 0 0.199218,-0.19726 v -5.16797 a 0.19845734,0.19845734 0 0 0 -0.199218,-0.19922 z m 0.199218,0.39649 h 3.228516 v 4.64648 l -0.621094,-0.32031 -0.902344,-0.46875 a 0.19845734,0.19845734 0 0 0 -0.183593,0 l -0.902344,0.46875 -0.619141,0.32031 z"
       id="rect9510" />
  </g>
</svg>
