<?xml version="1.0" encoding="UTF-8" standalone="no"?>
<!-- Created with Inkscape (http://www.inkscape.org/) -->

<svg
   width="9.2714844mm"
   height="9.2714844mm"
   viewBox="0 0 9.2714844 9.2714844"
   version="1.1"
   id="svg5"
   inkscape:version="1.1 (c68e22c387, 2021-05-23)"
   sodipodi:docname="circled-arrow.svg"
   xmlns:inkscape="http://www.inkscape.org/namespaces/inkscape"
   xmlns:sodipodi="http://sodipodi.sourceforge.net/DTD/sodipodi-0.dtd"
   xmlns="http://www.w3.org/2000/svg"
   xmlns:svg="http://www.w3.org/2000/svg">
  <sodipodi:namedview
     id="namedview7"
     pagecolor="#ffffff"
     bordercolor="#666666"
     borderopacity="1.0"
     inkscape:pageshadow="2"
     inkscape:pageopacity="0.0"
     inkscape:pagecheckerboard="0"
     inkscape:document-units="mm"
     showgrid="false"
     inkscape:zoom="10.732997"
     inkscape:cx="-13.41657"
     inkscape:cy="27.205822"
     inkscape:window-width="1920"
     inkscape:window-height="1046"
     inkscape:window-x="-11"
     inkscape:window-y="-11"
     inkscape:window-maximized="1"
     inkscape:current-layer="layer1-0" />
  <defs
     id="defs2" />
  <g
     inkscape:label="Layer 1"
     inkscape:groupmode="layer"
     id="layer1"
     transform="translate(-152.73827,-113.69136)">
    <g
       inkscape:label="Layer 1"
       id="layer1-0"
       transform="translate(159.20116,187.59956)">
      <g
         id="g1110">
        <g
           id="g4600"
           transform="translate(0.10373604,0.00153828)">
          <rect
             style="fill:#000000;stroke-width:1.58932"
             id="rect2147-1"
             width="2.9365304"
             height="0.42094952"
             x="49.410976"
             y="46.680988"
             ry="0.21047476"
             transform="rotate(-135)" />
          <rect
             style="fill:#000000;stroke-width:1.58932"
             id="rect2147-1-4"
             width="2.9365304"
             height="0.42094952"
             x="46.680988"
             y="49.410976"
             ry="0.21047476"
             transform="matrix(0.70710678,-0.70710678,-0.70710678,-0.70710678,0,0)" />
        </g>
        <path
           style="color:#000000;fill:#000000;-inkscape-stroke:none"
           d="m -1.8261719,-73.908203 c -2.557489,0 -4.6367187,2.077154 -4.6367187,4.634766 0,2.557611 2.0792297,4.636718 4.6367187,4.636718 2.55748901,0 4.6347657,-2.079107 4.6347657,-4.636718 -1e-7,-2.557612 -2.07727669,-4.634766 -4.6347657,-4.634766 z m 0,0.439453 c 2.32028495,0 4.1953125,1.874878 4.1953125,4.195313 0,2.320434 -1.87502755,4.197265 -4.1953125,4.197265 -2.3202849,0 -4.1972656,-1.876831 -4.1972656,-4.197265 0,-2.320435 1.8769807,-4.195313 4.1972656,-4.195313 z"
           id="path3276" />
      </g>
    </g>
  </g>
</svg>
