<?xml version="1.0" encoding="UTF-8" standalone="no"?>
<!-- Created with Inkscape (http://www.inkscape.org/) -->

<svg
   width="9.2713776mm"
   height="9.2713776mm"
   viewBox="0 0 9.2713776 9.2713776"
   version="1.1"
   id="svg5"
   inkscape:version="1.1 (c68e22c387, 2021-05-23)"
   sodipodi:docname="circled-x-icon.svg"
   xmlns:inkscape="http://www.inkscape.org/namespaces/inkscape"
   xmlns:sodipodi="http://sodipodi.sourceforge.net/DTD/sodipodi-0.dtd"
   xmlns="http://www.w3.org/2000/svg"
   xmlns:svg="http://www.w3.org/2000/svg">
  <sodipodi:namedview
     id="namedview7"
     pagecolor="#ffffff"
     bordercolor="#666666"
     borderopacity="1.0"
     inkscape:pageshadow="2"
     inkscape:pageopacity="0.0"
     inkscape:pagecheckerboard="0"
     inkscape:document-units="mm"
     showgrid="false"
     inkscape:zoom="10.732997"
     inkscape:cx="16.39803"
     inkscape:cy="22.454121"
     inkscape:window-width="1920"
     inkscape:window-height="1046"
     inkscape:window-x="-11"
     inkscape:window-y="-11"
     inkscape:window-maximized="1"
     inkscape:current-layer="layer1-0" />
  <defs
     id="defs2" />
  <g
     inkscape:label="Layer 1"
     inkscape:groupmode="layer"
     id="layer1"
     transform="translate(-144.45417,-111.02778)">
    <g
       inkscape:label="Layer 1"
       id="layer1-0"
       transform="translate(159.20116,187.59956)">
      <g
         id="g1281">
        <g
           id="g1275">
          <rect
             style="fill:#000000;stroke-width:1.96245"
             id="rect2147-1-90"
             width="4.4772425"
             height="0.42094952"
             x="55.777641"
             y="43.506256"
             ry="0.21047476"
             transform="rotate(-135)" />
          <rect
             style="fill:#000000;stroke-width:1.96245"
             id="rect2147-1-9"
             width="4.4772425"
             height="0.42094952"
             x="41.478111"
             y="57.805786"
             ry="0.21047476"
             transform="matrix(0.70710678,-0.70710678,-0.70710678,-0.70710678,0,0)" />
          <path
             style="color:#000000;fill:#000000;-inkscape-stroke:none"
             d="m -10.111328,-76.572266 c -2.557618,10e-7 -4.634766,2.079101 -4.634766,4.636719 0,2.557619 2.077147,4.634766 4.634766,4.634766 2.5576188,0 4.6347658,-2.077147 4.6347655,-4.634766 -2e-7,-2.557618 -2.0771471,-4.636719 -4.6347655,-4.636719 z m 0,0.439454 c 2.3204276,-10e-7 4.1972653,1.876837 4.1972655,4.197265 3e-7,2.320428 -1.8768376,4.195313 -4.1972655,4.195313 -2.320428,-10e-7 -4.197266,-1.874885 -4.197266,-4.195313 0,-2.320427 1.876838,-4.197265 4.197266,-4.197265 z"
             id="path3276-8" />
        </g>
      </g>
    </g>
  </g>
</svg>
