<?xml version="1.0" encoding="UTF-8" standalone="no"?>
<!-- Created with Inkscape (http://www.inkscape.org/) -->

<svg
   width="12.160479mm"
   height="12.160479mm"
   viewBox="0 0 12.160478 12.160478"
   version="1.1"
   id="svg5"
   inkscape:version="1.1 (c68e22c387, 2021-05-23)"
   sodipodi:docname="circle-point-arrow.svg"
   xmlns:inkscape="http://www.inkscape.org/namespaces/inkscape"
   xmlns:sodipodi="http://sodipodi.sourceforge.net/DTD/sodipodi-0.dtd"
   xmlns="http://www.w3.org/2000/svg"
   xmlns:svg="http://www.w3.org/2000/svg">
  <sodipodi:namedview
     id="namedview7"
     pagecolor="#ffffff"
     bordercolor="#666666"
     borderopacity="1.0"
     inkscape:pageshadow="2"
     inkscape:pageopacity="0.0"
     inkscape:pagecheckerboard="0"
     inkscape:document-units="mm"
     showgrid="false"
     inkscape:zoom="10.547699"
     inkscape:cx="34.746914"
     inkscape:cy="24.412907"
     inkscape:window-width="1920"
     inkscape:window-height="1013"
     inkscape:window-x="-9"
     inkscape:window-y="-9"
     inkscape:window-maximized="1"
     inkscape:current-layer="layer1" />
  <defs
     id="defs2" />
  <g
     inkscape:label="Layer 1"
     inkscape:groupmode="layer"
     id="layer1"
     transform="translate(-30.798636,-47.316241)">
    <g
       id="g2190"
       transform="translate(3.0101351,-0.20067568)">
      <circle
         style="opacity:1;fill:none;stroke:#000000;stroke-width:0.420952;stroke-miterlimit:4;stroke-dasharray:none"
         id="path1744"
         cx="33.86874"
         cy="53.597157"
         r="5.8697634" />
      <path
         id="rect1486-1-3-9-4"
         style="fill:#000000;stroke-width:6.86838"
         d="m -17.332031,-10.6875 c -0.203344,0 -0.406688,0.07661 -0.5625,0.232422 -0.311625,0.311625 -0.311625,0.8133749 0,1.1249999 l 9.1347654,9.13671872 c 0.175289,0.17528907 0.4107456,0.25237989 0.6386718,0.23046875 0.177276,-0.01704199 0.3499922,-0.0941328 0.4863282,-0.23046875 0.00974,-0.009738 0.020167,-0.021152 0.029297,-0.03125 L 1.5019531,-9.3300781 c 0.311625,-0.311625 0.311625,-0.8133749 0,-1.1249999 -0.311625,-0.311625 -0.81337497,-0.311625 -1.12499998,0 l -8.57421872,8.5742186 -8.5722654,-8.5742186 c -0.155813,-0.155813 -0.359156,-0.232422 -0.5625,-0.232422 z"
         transform="matrix(0.26458333,0,0,0.26458333,35.875498,55.001887)" />
    </g>
  </g>
</svg>
