po<?xml version="1.0" encoding="UTF-8" standalone="no"?>
<!-- Created with Inkscape (http://www.inkscape.org/) -->

<svg
   width="9.2714853mm"
   height="9.2714901mm"
   viewBox="0 0 9.2714853 9.2714901"
   version="1.1"
   id="svg5"
   inkscape:version="1.1 (c68e22c387, 2021-05-23)"
   sodipodi:docname="circled-checkmarked-icon.svg"
   xmlns:inkscape="http://www.inkscape.org/namespaces/inkscape"
   xmlns:sodipodi="http://sodipodi.sourceforge.net/DTD/sodipodi-0.dtd"
   xmlns="http://www.w3.org/2000/svg"
   xmlns:svg="http://www.w3.org/2000/svg">
  <sodipodi:namedview
     id="namedview7"
     pagecolor="#ffffff"
     bordercolor="#666666"
     borderopacity="1.0"
     inkscape:pageshadow="2"
     inkscape:pageopacity="0.0"
     inkscape:pagecheckerboard="0"
     inkscape:document-units="mm"
     showgrid="false"
     inkscape:zoom="5.3664983"
     inkscape:cx="4.2858487"
     inkscape:cy="36.336544"
     inkscape:window-width="1920"
     inkscape:window-height="1046"
     inkscape:window-x="-11"
     inkscape:window-y="-11"
     inkscape:window-maximized="1"
     inkscape:current-layer="layer1" />
  <defs
     id="defs2" />
  <g
     inkscape:label="Layer 1"
     inkscape:groupmode="layer"
     id="layer1"
     transform="translate(-81.742187,-138.93359)">
    <g
       id="g914">
      <rect
         style="fill:#000000;stroke-width:1.22257"
         id="rect2147-1"
         width="1.737637"
         height="0.42094952"
         x="-163.08365"
         y="-41.559162"
         ry="0.21047476"
         transform="rotate(-135)" />
      <rect
         style="fill:#000000;stroke-width:1.58896"
         id="rect2147-1-4"
         width="2.9352162"
         height="0.42094952"
         x="-41.561573"
         y="-163.15475"
         ry="0.21047476"
         transform="matrix(0.70710678,-0.70710678,-0.70710678,-0.70710678,0,0)" />
      <path
         style="color:#000000;fill:#000000;-inkscape-stroke:none"
         d="m 86.378906,138.93359 c -2.55762,0 -4.636721,2.0791 -4.636719,4.63672 4e-6,2.55762 2.079103,4.63477 4.636719,4.63477 2.557616,0 4.634762,-2.07715 4.634766,-4.63477 2e-6,-2.55762 -2.077146,-4.63672 -4.634766,-4.63672 z m 0,0.43946 c 2.320429,0 4.197268,1.87683 4.197266,4.19726 -3e-6,2.32043 -1.876841,4.19531 -4.197266,4.19531 -2.320425,10e-6 -4.197262,-1.87488 -4.197265,-4.19531 -2e-6,-2.32043 1.876836,-4.19726 4.197265,-4.19726 z"
         id="path3276" />
    </g>
  </g>
</svg>
