<?xml version="1.0" encoding="UTF-8" standalone="no"?>
<!-- Created with Inkscape (http://www.inkscape.org/) -->

<svg
   width="11.560055mm"
   height="11.557572mm"
   viewBox="0 0 11.560055 11.557572"
   version="1.1"
   id="svg5"
   inkscape:version="1.1 (c68e22c387, 2021-05-23)"
   sodipodi:docname="download.png.svg"
   xmlns:inkscape="http://www.inkscape.org/namespaces/inkscape"
   xmlns:sodipodi="http://sodipodi.sourceforge.net/DTD/sodipodi-0.dtd"
   xmlns="http://www.w3.org/2000/svg"
   xmlns:svg="http://www.w3.org/2000/svg">
  <sodipodi:namedview
     id="namedview7"
     pagecolor="#ffffff"
     bordercolor="#666666"
     borderopacity="1.0"
     inkscape:pageshadow="2"
     inkscape:pageopacity="0.0"
     inkscape:pagecheckerboard="0"
     inkscape:document-units="mm"
     showgrid="false"
     inkscape:zoom="10.148597"
     inkscape:cx="20.396908"
     inkscape:cy="25.126626"
     inkscape:window-width="1920"
     inkscape:window-height="1000"
     inkscape:window-x="-11"
     inkscape:window-y="-11"
     inkscape:window-maximized="1"
     inkscape:current-layer="layer1" />
  <defs
     id="defs2" />
  <g
     inkscape:label="Layer 1"
     inkscape:groupmode="layer"
     id="layer1"
     transform="translate(-26.961749,-43.647142)">
    <path
       style="fill:#ffffff;stroke-width:0.0258382"
       d="m 27.525016,55.161763 c -0.242756,-0.08412 -0.370038,-0.196692 -0.501717,-0.443738 l -0.06155,-0.115479 v -1.012228 c 0,-0.982035 0.0016,-1.014358 0.05327,-1.083609 0.100691,-0.134915 0.184009,-0.177926 0.344666,-0.177926 0.121639,0 0.165285,0.01266 0.239932,0.0696 0.173553,0.132376 0.176033,0.148101 0.176033,1.116407 v 0.868135 h 4.959984 4.959983 l 0.0074,-0.902484 c 0.0071,-0.865098 0.0096,-0.905437 0.06069,-0.973796 0.100761,-0.134881 0.184045,-0.177858 0.344666,-0.177858 0.121639,0 0.165285,0.01266 0.239932,0.0696 0.178838,0.136407 0.179287,0.139604 0.17075,1.215779 l -0.0076,0.96255 -0.06769,0.144344 c -0.08604,0.183478 -0.224603,0.322039 -0.408081,0.408081 l -0.144344,0.06769 -5.115967,0.0057 c -4.87005,0.0055 -5.122426,0.0035 -5.25033,-0.04081 z m 5.042453,-2.4725 c -0.04328,-0.02136 -0.760407,-0.721633 -1.593621,-1.556164 -1.639713,-1.642304 -1.577039,-1.568596 -1.533066,-1.802991 0.0229,-0.122073 0.187978,-0.28715 0.310051,-0.310051 0.230794,-0.0433 0.193872,-0.07324 1.428742,1.158759 l 1.14308,1.140426 0.0067,-3.711427 c 0.0067,-3.703013 0.0068,-3.711589 0.05999,-3.782777 0.100722,-0.1349 0.184025,-0.177896 0.344666,-0.177896 0.121639,0 0.165285,0.01266 0.239932,0.0696 0.190088,0.144987 0.176033,-0.168458 0.176033,3.925648 v 3.677376 l 1.143341,-1.140686 c 1.235154,-1.232285 1.198206,-1.202318 1.429003,-1.15902 0.122073,0.0229 0.28715,0.187978 0.310051,0.310051 0.04397,0.234398 0.106685,0.160648 -1.533506,1.803431 -0.833456,0.834773 -1.552342,1.535312 -1.597525,1.556753 -0.103883,0.0493 -0.232735,0.0489 -0.333895,-10e-4 z"
       id="path836" />
  </g>
</svg>
