<?xml version="1.0" encoding="UTF-8" standalone="no"?>
<!-- Created with Inkscape (http://www.inkscape.org/) -->

<svg
   width="15.119084mm"
   height="15.875mm"
   viewBox="0 0 15.119084 15.875"
   version="1.1"
   id="svg5"
   inkscape:version="1.1 (c68e22c387, 2021-05-23)"
   sodipodi:docname="magnifying-glass-icon.svg"
   xmlns:inkscape="http://www.inkscape.org/namespaces/inkscape"
   xmlns:sodipodi="http://sodipodi.sourceforge.net/DTD/sodipodi-0.dtd"
   xmlns="http://www.w3.org/2000/svg"
   xmlns:svg="http://www.w3.org/2000/svg">
  <sodipodi:namedview
     id="namedview7"
     pagecolor="#ffffff"
     bordercolor="#666666"
     borderopacity="1.0"
     inkscape:pageshadow="2"
     inkscape:pageopacity="0.0"
     inkscape:pagecheckerboard="0"
     inkscape:document-units="mm"
     showgrid="false"
     inkscape:zoom="7.5893747"
     inkscape:cx="26.879685"
     inkscape:cy="30.569053"
     inkscape:window-width="1920"
     inkscape:window-height="1046"
     inkscape:window-x="-11"
     inkscape:window-y="-11"
     inkscape:window-maximized="1"
     inkscape:current-layer="layer1" />
  <defs
     id="defs2" />
  <g
     inkscape:label="Layer 1"
     inkscape:groupmode="layer"
     id="layer1"
     transform="translate(10.453417,-38.849373)">
    <path
       id="path1519"
       style="color:#000000;fill:#000000;stroke-width:3.77953;-inkscape-stroke:none;paint-order:markers fill stroke"
       d="M 28.517578 18.447266 C 27.735729 18.454595 26.941701 18.559977 26.152344 18.771484 C 21.100456 20.125134 18.083851 25.338737 19.4375 30.390625 C 20.791149 35.442513 26.010613 38.449356 31.0625 37.095703 C 32.470042 36.718553 33.719544 36.041617 34.759766 35.152344 L 37.558594 37.951172 L 38.619141 36.890625 L 35.818359 34.089844 C 37.773309 31.79312 38.6074 28.605486 37.769531 25.478516 C 36.627393 21.215985 32.739561 18.407688 28.517578 18.447266 z M 28.535156 19.943359 C 32.093454 19.905899 35.349342 22.265345 36.314453 25.867188 C 37.458287 30.136034 34.942675 34.504603 30.673828 35.648438 C 26.404977 36.792273 22.036413 34.268851 20.892578 30 C 19.748739 25.73115 22.272165 21.362585 26.541016 20.21875 C 27.208024 20.040026 27.876212 19.950296 28.535156 19.943359 z "
       transform="matrix(0.26458333,0,0,0.26458333,-10.453417,38.849373)" />
  </g>
</svg>
