<?xml version="1.0" encoding="UTF-8" standalone="no"?>
<!-- Created with Inkscape (http://www.inkscape.org/) -->

<svg
   width="15.875mm"
   height="15.875mm"
   viewBox="0 0 15.875 15.875"
   version="1.1"
   id="svg5"
   sodipodi:docname="web-page-icon.svg"
   inkscape:version="1.1 (c68e22c387, 2021-05-23)"
   xmlns:inkscape="http://www.inkscape.org/namespaces/inkscape"
   xmlns:sodipodi="http://sodipodi.sourceforge.net/DTD/sodipodi-0.dtd"
   xmlns="http://www.w3.org/2000/svg"
   xmlns:svg="http://www.w3.org/2000/svg">
  <sodipodi:namedview
     id="namedview7"
     pagecolor="#ffffff"
     bordercolor="#666666"
     borderopacity="1.0"
     inkscape:pageshadow="2"
     inkscape:pageopacity="0.0"
     inkscape:pagecheckerboard="0"
     inkscape:document-units="mm"
     showgrid="false"
     inkscape:object-paths="false"
     inkscape:zoom="11.313708"
     inkscape:cx="17.412505"
     inkscape:cy="29.96365"
     inkscape:window-width="1920"
     inkscape:window-height="1046"
     inkscape:window-x="-11"
     inkscape:window-y="-11"
     inkscape:window-maximized="1"
     inkscape:current-layer="layer1" />
  <defs
     id="defs2" />
  <g
     inkscape:label="Layer 1"
     inkscape:groupmode="layer"
     id="layer1"
     transform="translate(-71.390442,-65.079681)">
    <rect
       style="fill:none;stroke:none;stroke-width:0.396875;paint-order:markers fill stroke"
       id="rect846"
       width="15.875"
       height="15.875"
       x="71.390442"
       y="65.079681"
       rx="0" />
    <g
       id="g5556">
      <g
         id="g5333"
         transform="translate(-0.09848961,-0.2055196)">
        <path
           style="color:#000000;fill:#000000;stroke-width:0.933396;stroke-linejoin:round;-inkscape-stroke:none;paint-order:markers fill stroke"
           d="m 74.707682,68.476041 c -0.227512,0 -0.416016,0.16423 -0.416016,0.362445 v 8.76843 c 0,0.198215 0.188504,0.362445 0.416016,0.362445 h 9.4375 c 0.227512,0 0.416015,-0.16423 0.416015,-0.362445 v -8.76843 c 0,-0.198215 -0.188503,-0.362445 -0.416015,-0.362445 z m 0,0.299485 h 9.4375 c 0.04291,0 0.07227,0.02558 0.07227,0.06296 v 8.76843 c 0,0.03739 -0.02936,0.06296 -0.07227,0.06296 h -9.4375 c -0.04291,0 -0.07227,-0.02558 -0.07227,-0.06296 v -8.768433 c 0,-0.03739 0.02936,-0.06296 0.07227,-0.06296 z"
           id="rect1174" />
        <path
           style="color:#000000;fill:#000000;stroke-linejoin:round;-inkscape-stroke:none;paint-order:markers fill stroke"
           d="m 75.750651,69.132291 c -0.297017,0 -0.541016,0.243999 -0.541016,0.541016 10e-7,0.297017 0.243999,0.541016 0.541016,0.541016 0.297016,0 0.541015,-0.243999 0.541015,-0.541016 0,-0.297017 -0.243998,-0.541016 -0.541015,-0.541016 z m 0,0.316407 c 0.125427,0 0.224609,0.09918 0.224609,0.224609 0,0.125427 -0.09918,0.222656 -0.224609,0.222656 -0.125428,0 -0.224609,-0.09723 -0.22461,-0.222656 0,-0.125427 0.09918,-0.224609 0.22461,-0.224609 z"
           id="path1508-2" />
        <path
           style="color:#000000;fill:#000000;stroke-linejoin:round;-inkscape-stroke:none;paint-order:markers fill stroke"
           d="m 77.149088,69.132291 c -0.297017,0 -0.541016,0.243999 -0.541016,0.541016 10e-7,0.297017 0.244,0.541016 0.541016,0.541016 0.297017,0 0.541015,-0.243999 0.541016,-0.541016 0,-0.297017 -0.243999,-0.541016 -0.541016,-0.541016 z m 0,0.316407 c 0.125428,0 0.222656,0.09918 0.222656,0.224609 0,0.125427 -0.09723,0.222656 -0.222656,0.222656 -0.125427,0 -0.224609,-0.09723 -0.224609,-0.222656 0,-0.125427 0.09918,-0.224609 0.224609,-0.224609 z"
           id="path1508-2-5" />
        <path
           style="color:#000000;fill:#000000;stroke-linejoin:round;-inkscape-stroke:none;paint-order:markers fill stroke"
           d="m 78.545572,69.132291 c -0.297017,0 -0.541015,0.243999 -0.541015,0.541016 10e-7,0.297017 0.243999,0.541016 0.541015,0.541016 0.297017,0 0.541015,-0.243999 0.541016,-0.541016 0,-0.297017 -0.243998,-0.541016 -0.541016,-0.541016 z m 0,0.316407 c 0.125428,0 0.22461,0.09918 0.22461,0.224609 0,0.125427 -0.09918,0.222656 -0.22461,0.222656 -0.125427,0 -0.222655,-0.09723 -0.222656,-0.222656 0,-0.125427 0.09723,-0.224609 0.222656,-0.224609 z"
           id="path1508-2-5-7" />
        <path
           style="color:#000000;fill:#000000;stroke-width:0.349478;stroke-linejoin:round;-inkscape-stroke:none;paint-order:markers fill stroke"
           d="m 74.625699,70.465231 h 9.594282 v 0.343958 h -9.594282 z"
           id="rect2311" />
        <path
           style="color:#000000;fill:#000000;stroke-width:0.201018;stroke-linejoin:round;-inkscape-stroke:none;paint-order:markers fill stroke"
           d="m 75.4356,72.509769 h 2.830294 c 0.09528,0 0.171979,0.0767 0.171979,0.171979 0,0.09528 -0.0767,0.171979 -0.171979,0.171979 H 75.4356 c -0.09528,0 -0.171979,-0.0767 -0.171979,-0.171979 0,-0.09528 0.0767,-0.171979 0.171979,-0.171979 z"
           id="rect2311-0" />
        <path
           style="color:#000000;fill:#000000;stroke-width:0.201018;stroke-linejoin:round;-inkscape-stroke:none;paint-order:markers fill stroke"
           d="m 75.4356,75.718715 h 2.830294 c 0.09528,0 0.171979,0.0767 0.171979,0.171979 0,0.09528 -0.0767,0.17198 -0.171979,0.17198 H 75.4356 c -0.09528,0 -0.171979,-0.0767 -0.171979,-0.17198 0,-0.09528 0.0767,-0.171979 0.171979,-0.171979 z"
           id="rect2311-0-6" />
        <path
           style="color:#000000;fill:#000000;stroke-width:0.136728;stroke-linejoin:round;-inkscape-stroke:none;paint-order:markers fill stroke"
           d="m 75.4356,74.678043 h 1.124587 c 0.09528,0 0.171979,0.0767 0.171979,0.171979 0,0.09528 -0.0767,0.171979 -0.171979,0.171979 H 75.4356 c -0.09528,0 -0.171979,-0.0767 -0.171979,-0.171979 0,-0.09528 0.0767,-0.171979 0.171979,-0.171979 z"
           id="rect2311-0-7" />
        <path
           style="color:#000000;fill:#000000;stroke-width:0.151446;stroke-linejoin:round;-inkscape-stroke:none;paint-order:markers fill stroke"
           d="m 75.4356,73.52676 h 1.457768 c 0.09528,0 0.171979,0.0767 0.171979,0.171979 0,0.09528 -0.0767,0.171979 -0.171979,0.171979 H 75.4356 c -0.09528,0 -0.171979,-0.0767 -0.171979,-0.171979 0,-0.09528 0.0767,-0.171979 0.171979,-0.171979 z"
           id="rect2311-0-9" />
        <path
           style="color:#000000;fill:#000000;stroke-width:0.103774;stroke-linejoin:round;-inkscape-stroke:none;paint-order:markers fill stroke"
           d="m 77.648254,73.52676 h 0.501998 c 0.09528,0 0.17198,0.0767 0.17198,0.171979 0,0.09528 -0.0767,0.171979 -0.17198,0.171979 h -0.501998 c -0.09528,0 -0.171979,-0.0767 -0.171979,-0.171979 0,-0.09528 0.0767,-0.171979 0.171979,-0.171979 z"
           id="rect2311-0-9-5" />
        <path
           style="color:#000000;fill:#000000;stroke-linejoin:round;-inkscape-stroke:none;paint-order:markers fill stroke"
           d="m 80.066406,72.40625 a 0.15876587,0.15876587 0 0 0 -0.158203,0.158203 v 3.470703 a 0.15876587,0.15876587 0 0 0 0.158203,0.160156 h 2.982422 a 0.15876587,0.15876587 0 0 0 0.158203,-0.160156 V 72.564453 A 0.15876587,0.15876587 0 0 0 83.048828,72.40625 Z m 0.160156,0.316406 h 2.664063 v 3.154297 h -2.664063 z"
           id="rect5098" />
      </g>
    </g>
  </g>
</svg>
