<?xml version="1.0" encoding="UTF-8" standalone="no"?>
<!-- Created with Inkscape (http://www.inkscape.org/) -->

<svg
   width="15.119084mm"
   height="15.875mm"
   viewBox="0 0 15.119084 15.875"
   version="1.1"
   id="svg5"
   inkscape:version="1.1 (c68e22c387, 2021-05-23)"
   sodipodi:docname="wordpress.svg"
   xmlns:inkscape="http://www.inkscape.org/namespaces/inkscape"
   xmlns:sodipodi="http://sodipodi.sourceforge.net/DTD/sodipodi-0.dtd"
   xmlns="http://www.w3.org/2000/svg"
   xmlns:svg="http://www.w3.org/2000/svg">
  <sodipodi:namedview
     id="namedview7"
     pagecolor="#ffffff"
     bordercolor="#666666"
     borderopacity="1.0"
     inkscape:pageshadow="2"
     inkscape:pageopacity="0.0"
     inkscape:pagecheckerboard="0"
     inkscape:document-units="mm"
     showgrid="false"
     inkscape:zoom="3.7946873"
     inkscape:cx="38.474843"
     inkscape:cy="19.500948"
     inkscape:window-width="1920"
     inkscape:window-height="1046"
     inkscape:window-x="-11"
     inkscape:window-y="-11"
     inkscape:window-maximized="1"
     inkscape:current-layer="layer1" />
  <defs
     id="defs2" />
  <g
     inkscape:label="Layer 1"
     inkscape:groupmode="layer"
     id="layer1"
     transform="translate(10.453417,-38.849373)">
    <path
       style="fill:#000000;stroke-width:0.0163923"
       d="m -3.139757,50.872912 c -0.6048562,-0.05286 -1.0681252,-0.176955 -1.5540164,-0.416261 -1.2530727,-0.617147 -2.0867712,-1.792309 -2.2678212,-3.196673 -0.025856,-0.200609 -0.025856,-0.750144 0,-0.950752 0.084047,-0.65195 0.2995866,-1.240421 0.6484249,-1.770371 0.6647615,-1.009888 1.7224834,-1.664505 2.9439184,-1.821974 0.2006089,-0.02586 0.7501435,-0.02586 0.9507525,0 0.9264622,0.119442 1.77568563,0.531828 2.41810147903,1.174244 C 0.64201852,44.53354 1.0544055,45.382763 1.1738443,46.309226 c 0.025857,0.200608 0.025857,0.750143 0,0.950752 -0.1194388,0.92646 -0.53182578,1.775683 -1.17424162097,2.418099 C -0.6381954,50.315874 -1.5036187,50.737916 -2.4021056,50.84933 c -0.15243,0.01892 -0.6201423,0.03386 -0.7376514,0.0236 z m 0.7868274,-0.440245 c 0.1979135,-0.03272 0.3547642,-0.06722 0.4993692,-0.10989 0.1903347,-0.05618 0.193087,-0.05771 0.1721559,-0.09683 -0.010044,-0.01877 -0.2690635,-0.721464 -0.575588,-1.561525 -0.3065283,-0.840059 -0.5623149,-1.532406 -0.5684149,-1.53855 -0.010499,-0.01071 -1.1011809,3.137825 -1.1011809,3.178777 0,0.01904 0.020511,0.02603 0.221294,0.07593 0.093564,0.02324 0.3673433,0.06755 0.5081608,0.08225 0.1388157,0.0145 0.694223,-0.0053 0.8442039,-0.03014 z m -2.179114,-0.422882 c -0.027789,-0.07982 -1.6747481,-4.593037 -1.7093204,-4.684098 l -0.015544,-0.04098 -0.021344,0.04098 c -0.089078,0.171091 -0.2024023,0.559138 -0.2585049,0.885183 -0.047133,0.273905 -0.050951,0.834385 -0.00755,1.106352 0.064356,0.403166 0.1660557,0.728318 0.3384428,1.082022 0.2759597,0.566226 0.6728632,1.030212 1.207813,1.411942 0.1096192,0.07822 0.4603727,0.28466 0.4836621,0.28466 0.00675,0 -0.00114,-0.03872 -0.017666,-0.08606 z m 3.66925575,-0.150484 c 0.21951226,-0.14712 0.35962088,-0.262012 0.55657883,-0.456439 0.578037,-0.570583 0.9261171,-1.253906 1.06235489,-2.085511 0.0452221,-0.276055 0.0405544,-0.827873 -0.009517,-1.122873 -0.0616451,-0.363281 -0.18020842,-0.733908 -0.33167928,-1.036811 -0.034955,-0.06987 -0.0652928,-0.127033 -0.0674459,-0.127033 -0.002277,1.2e-5 -0.004246,0.171515 -0.004701,0.381124 -7.5818e-4,0.350391 -0.004363,0.398273 -0.0455246,0.594201 -0.0246045,0.117213 -0.0878315,0.338503 -0.14048395,0.491771 -0.13002019,0.378489 -1.18169514,3.414386 -1.19291734,3.443629 -0.015051,0.03924 0.00997,0.02736 0.17330852,-0.08206 z M -3.0094261,46.628959 c -3.789e-4,-0.01809 -0.1277528,-0.379487 -0.2829164,-0.803134 l -0.282109,-0.770259 -0.2203006,-0.02084 c -0.2554378,-0.02419 -0.2957613,-0.04507 -0.2957613,-0.153121 0,-0.08447 0.012706,-0.110481 0.067866,-0.139013 0.041295,-0.02134 0.080128,-0.02191 0.2971717,-0.0042 0.3229974,0.0263 1.2107928,0.02616 1.5355342,-2.49e-4 0.2410082,-0.01958 0.255161,-0.01908 0.2950635,0.01071 0.07851,0.05844 0.086072,0.165186 0.016303,0.230186 -0.036812,0.03432 -0.1059033,0.04677 -0.3464538,0.06254 -0.088377,0.0058 -0.1606872,0.0145 -0.1606872,0.01921 0,0.01766 1.3168789,3.929145 1.3266906,3.940647 0.0056,0.0065 0.0754534,-0.207364 0.15523198,-0.475379 0.0797823,-0.268013 0.19614277,-0.653268 0.25857663,-0.856127 0.20661056,-0.671277 0.25310997,-0.899233 0.23739923,-1.163853 -0.0213062,-0.359055 -0.11032514,-0.608533 -0.37129017,-1.04064 -0.24981137,-0.413636 -0.31695047,-0.615666 -0.28027787,-0.843376 0.033098,-0.205581 0.15906477,-0.390441 0.32908231,-0.482976 0.045401,-0.0247 0.13593871,-0.05387 0.20120044,-0.0648 l 0.11865736,-0.01988 -0.12833272,-0.106038 c -0.41405943,-0.342146 -0.92609499,-0.603226 -1.44532629,-0.736972 -0.318607,-0.08206 -0.5211723,-0.10557 -0.9097732,-0.10557 -0.3886008,0 -0.5911697,0.02351 -0.9097731,0.10557 -0.8079523,0.208115 -1.518523,0.68 -2.0237722,1.343974 -0.051454,0.06761 -0.1074924,0.144443 -0.1245298,0.170712 l -0.030974,0.04778 0.4175543,-0.01083 c 0.2296536,-0.006 0.5132564,-0.01846 0.630227,-0.02773 0.2355187,-0.01871 0.2866017,-0.0092 0.3179476,0.05968 0.030557,0.06702 0.022293,0.135198 -0.021725,0.179183 -0.02214,0.02214 -0.049789,0.04084 -0.061471,0.04158 -0.011668,7.59e-4 -0.1171299,0.01009 -0.2343358,0.02074 -0.1723603,0.01569 -0.2123237,0.02404 -0.2090482,0.04375 0.00379,0.02207 1.3027187,3.892399 1.325887,3.950303 0.010647,0.02661 0.8097834,-2.347108 0.8084527,-2.401387 z"
       id="path1118" />
  </g>
</svg>
