<svg width="20" height="20" viewBox="0 0 20 20" fill="none" xmlns="http://www.w3.org/2000/svg">
<circle cx="10" cy="10" r="9" stroke="#212B61" stroke-width="2"/>
<g clip-path="url(#clip0_329_4)">
<path d="M5.66649 14.9566C5.50254 14.8695 5.47445 14.7381 5.51889 14.2664C5.60823 13.318 5.97583 12.4544 6.58292 11.7665C7.2452 11.0161 8.07196 10.576 9.02401 10.467C9.27616 10.4382 10.7247 10.4382 10.9766 10.4671C11.9091 10.5739 12.7386 11.0081 13.3833 11.7267C13.6927 12.0717 13.8924 12.3774 14.0942 12.815C14.3016 13.2646 14.4341 13.7608 14.4817 14.2663C14.5256 14.7318 14.4957 14.8722 14.3351 14.9557L14.2499 15L9.999 15C5.77589 15 5.74753 14.9997 5.66649 14.9566ZM9.66013 9.77821C9.06258 9.68804 8.52451 9.40004 8.09803 8.94211C7.6979 8.51245 7.46797 8.0517 7.34547 7.43398C7.29579 7.18349 7.29579 6.61551 7.34547 6.36502C7.46817 5.74631 7.69909 5.28326 8.09745 4.85712C9.16508 3.71501 10.8483 3.7142 11.9024 4.85527C12.3042 5.29026 12.5326 5.74826 12.6552 6.36502C12.7049 6.61477 12.704 7.18127 12.6535 7.43667C12.5316 8.05373 12.3042 8.50965 11.9024 8.94273C11.3967 9.48776 10.7968 9.7663 10.0804 9.78875C9.92077 9.79375 9.73167 9.78899 9.66013 9.77821H9.66013Z" fill="#212B61"/>
</g>
<defs>
<clipPath id="clip0_329_4">
<rect width="9" height="11" fill="white" transform="translate(5.5 4)"/>
</clipPath>
</defs>
</svg>
