<svg width="22" height="15" viewBox="0 0 22 15" fill="none" xmlns="http://www.w3.org/2000/svg">
<g clip-path="url(#clip0_301_83)">
<path d="M1.87667 14.8909C1.26972 14.7932 0.65318 14.3602 0.357389 13.824C0.0693689 13.3018 0.0731331 13.3849 0.0725001 7.53328C0.072121 4.27841 0.0911691 2.04833 0.120809 1.86916C0.223628 1.24764 0.626389 0.669643 1.17776 0.352348C1.69261 0.0560658 1.15546 0.0714246 11.0036 0.0714246C20.8517 0.0714246 20.3146 0.0560658 20.8294 0.352348C21.3909 0.675436 21.7879 1.25326 21.8887 1.89379C21.9208 2.09812 21.9338 4.20063 21.9246 7.70566C21.9083 13.8873 21.9386 13.4164 21.5183 14.0197C21.2758 14.3676 20.8347 14.6939 20.4182 14.8333C20.1703 14.9163 19.6515 14.9216 11.154 14.9283C6.00941 14.9323 2.0343 14.9163 1.87667 14.8909ZM20.1857 14.0516C20.5981 13.9138 20.8007 14.1827 17.4963 10.4846C15.828 8.61756 14.4433 7.09 14.4193 7.09C14.3953 7.09 13.6726 7.69951 12.8134 8.44446C11.9542 9.18941 11.1987 9.81873 11.1344 9.84294C11.0702 9.86715 10.9637 9.87212 10.8978 9.85398C10.8319 9.83585 10.0676 9.20281 9.19936 8.44723C8.33115 7.69164 7.60436 7.08342 7.58426 7.09562C7.56416 7.10781 6.26626 8.5522 4.70003 10.3053C3.1338 12.0585 1.77531 13.577 1.68116 13.6798C1.49052 13.8879 1.50657 13.9409 1.79112 14.0433C2.02107 14.126 19.9388 14.1341 20.1857 14.0516V14.0516ZM4.09942 9.76337L6.98795 6.52635L4.21918 4.12855C2.69636 2.80976 1.37768 1.66393 1.28879 1.58226L1.12717 1.43378L1.02661 1.65148C0.927881 1.86522 0.926037 1.97074 0.924955 7.46768C0.924386 10.5469 0.938298 13.1032 0.955966 13.1484C0.997075 13.2536 0.685829 13.5888 4.09942 9.76337ZM21.0822 7.49343C21.0811 2.01172 21.0786 1.86377 20.9827 1.65621L20.8843 1.44325L20.0431 2.17336C19.5804 2.57493 18.2705 3.71045 17.1322 4.69675C15.9939 5.68305 15.069 6.50911 15.0769 6.53245C15.1151 6.64489 20.9955 13.171 21.0363 13.1462C21.0651 13.1287 21.0829 10.9396 21.0822 7.49343ZM15.5802 4.97044C18.0967 2.78884 20.1621 0.985509 20.17 0.963051C20.178 0.940594 20.099 0.908348 19.9945 0.891392C19.7463 0.851106 2.26088 0.851106 2.01268 0.891392C1.90821 0.90835 1.82923 0.939663 1.83716 0.960983C1.84918 0.993266 10.9516 8.9196 10.9917 8.9327C10.9989 8.93506 13.0637 7.15205 15.5802 4.97044Z" fill="black" stroke="black" stroke-width="0.765"/>
</g>
<defs>
<clipPath id="clip0_301_83">
<rect width="22" height="15" fill="white"/>
</clipPath>
</defs>
</svg>
