<svg width="20" height="20" viewBox="0 0 20 20" fill="none" xmlns="http://www.w3.org/2000/svg">
<circle cx="10" cy="10" r="9" stroke="#212B61" stroke-width="2"/>
<path d="M9.82172 16.6996C9.3445 16.6298 8.87346 16.1941 8.73779 15.697C8.701 15.5622 8.69778 15.5584 8.60625 15.5435C8.54906 15.5342 8.48975 15.5036 8.45433 15.4652L8.39622 15.4021V14.8938V14.3854H9.99008H11.5839V14.8935C11.5839 15.3948 11.5832 15.4025 11.5305 15.4642C11.4961 15.5045 11.4423 15.5324 11.379 15.5428L11.2809 15.5588L11.2314 15.7342C11.0525 16.3676 10.4364 16.7895 9.82172 16.6996ZM8.38836 13.8067C8.38237 13.7832 8.37078 13.6517 8.3626 13.5143L8.34773 13.2645H9.9903H11.6329L11.6188 13.4777C11.611 13.595 11.5995 13.7266 11.5933 13.7701L11.5819 13.8493H9.99058C8.49414 13.8493 8.3986 13.8468 8.38836 13.8067H8.38836ZM8.16374 12.4298C8.00187 11.8957 7.71771 11.3406 7.3311 10.8035C6.99147 10.3317 6.80857 9.98335 6.67012 9.54471C6.52834 9.09553 6.50082 8.89708 6.50002 8.31816C6.49918 7.73384 6.51987 7.57845 6.6583 7.12682C6.98271 6.06842 7.77174 5.16496 8.72496 4.76044C9.48292 4.43878 10.284 4.41475 11.0676 4.69017C12.1399 5.06702 12.9776 5.97346 13.334 7.14268C13.4587 7.55152 13.5005 7.84132 13.5 8.2938C13.499 9.20973 13.236 9.99015 12.6746 10.7426C12.2834 11.2669 11.9679 11.8959 11.7961 12.4942L11.7358 12.7041H9.99133H8.24687L8.16374 12.4298Z" fill="#212B61"/>
</svg>
