<svg width="22" height="22" viewBox="0 0 22 22" fill="none" xmlns="http://www.w3.org/2000/svg">
<path d="M15.8502 20.9166C14.5402 20.776 13.1457 20.3046 11.5254 19.4544C8.34728 17.7871 5.71392 15.4092 3.60311 12.3007C3.09314 11.5496 2.79622 11.0355 2.35027 10.1313C1.41084 8.22648 1.01089 6.75793 1.07649 5.45411C1.11258 4.73668 1.35946 4.0465 1.75684 3.55219C1.97778 3.27735 3.43483 1.81893 3.69394 1.61327C4.59954 0.894467 5.49573 0.888062 6.36286 1.59418C6.65446 1.83163 9.00731 4.18328 9.21505 4.44492C9.60889 4.94093 9.75742 5.54815 9.61663 6.08666C9.47749 6.61881 9.18452 6.99929 8.14231 8.0013C7.80648 8.32418 7.53173 8.61093 7.53172 8.63852C7.53172 8.72085 7.91223 9.4071 8.16573 9.78195C8.65928 10.5118 9.14912 11.0986 9.92644 11.8914C10.9853 12.9713 11.9802 13.7361 13.0929 14.3255L13.3747 14.4747L14.2423 13.6211C14.7195 13.1516 15.199 12.7115 15.3078 12.6431C15.8835 12.2814 16.5262 12.247 17.1554 12.5443C17.4328 12.6754 17.5269 12.7614 19.0095 14.2403C20.4872 15.7144 20.5788 15.8139 20.7105 16.0893C21.0183 16.7329 21.007 17.2526 20.6715 17.8886C20.5524 18.1145 20.3599 18.3333 19.5605 19.1517C19.0288 19.6961 18.5024 20.2104 18.3908 20.2946C18.1157 20.5021 17.6302 20.7293 17.2528 20.8271C16.9444 20.9071 16.2022 20.9544 15.8502 20.9166ZM17.1723 19.8226C17.6677 19.643 17.71 19.6082 18.9302 18.3739C19.8078 17.4863 19.9023 17.3491 19.9023 16.9627C19.9023 16.7941 19.8767 16.6801 19.8098 16.5497C19.6866 16.3096 16.9351 13.5713 16.6992 13.4539C16.4861 13.3479 16.1814 13.3476 15.9478 13.4531C15.8234 13.5093 15.5013 13.8005 14.8373 14.4568C14.3229 14.9653 13.8495 15.4073 13.7852 15.439C13.6033 15.5288 13.3925 15.5533 13.214 15.5054C13.1243 15.4814 12.8216 15.3385 12.5413 15.1881C11.4488 14.6014 10.4327 13.8222 9.34148 12.7344C8.05157 11.4485 7.30139 10.4687 6.74051 9.33742C6.53409 8.92107 6.49886 8.81835 6.48625 8.59613C6.47584 8.41257 6.4895 8.30373 6.5336 8.21877C6.56768 8.1531 7.00528 7.6959 7.50604 7.20275C8.52025 6.20395 8.63799 6.04665 8.6406 5.68696C8.64351 5.28818 8.58752 5.21765 7.04854 3.68081C5.52824 2.16262 5.42202 2.07796 5.03814 2.07795C4.6701 2.07795 4.51568 2.19285 3.45889 3.25299C2.5857 4.12893 2.4683 4.2619 2.33796 4.52252C2.25789 4.68263 2.16672 4.9359 2.13537 5.08534C1.90891 6.16461 2.33226 7.86722 3.31184 9.81684C4.62008 12.4206 6.89632 15.1051 9.30451 16.8844C10.2969 17.6177 11.1394 18.1379 12.2267 18.6891C13.4202 19.2941 14.3466 19.6379 15.2548 19.813C15.8352 19.9249 15.8399 19.9253 16.4151 19.9154C16.8407 19.9081 16.9852 19.8904 17.1723 19.8226Z" fill="#2F386B" stroke="black" stroke-width="0.694"/>
</svg>
