<svg width="20" height="20" viewBox="0 0 20 20" fill="none" xmlns="http://www.w3.org/2000/svg">
<circle cx="10" cy="10" r="9" stroke="#212B61" stroke-width="2"/>
<path d="M9.16518 15.9725C9.08225 15.9358 8.97188 15.8132 8.95527 15.7392C8.90246 15.504 8.63289 14.434 8.61708 14.3968C8.60404 14.3662 8.53988 14.3294 8.43544 14.2927C8.34663 14.2615 8.1782 14.1917 8.06115 14.1376L7.84833 14.0391L7.49755 14.2507C6.82746 14.6549 6.7583 14.6907 6.64757 14.6907C6.59149 14.6907 6.51708 14.6756 6.4822 14.6572C6.37218 14.5992 5.3318 13.5357 5.31382 13.4629C5.27789 13.3175 5.31791 13.2223 5.64052 12.6857L5.95918 12.1556L5.85872 11.9386C5.80347 11.8193 5.73274 11.6491 5.70154 11.5603C5.66501 11.4564 5.6279 11.3916 5.59735 11.3784C5.57126 11.3671 5.24873 11.284 4.88063 11.1936C4.50138 11.1005 4.18654 11.0109 4.15409 10.9868C4.1226 10.9634 4.07505 10.9151 4.04842 10.8795C4.00168 10.8169 4 10.7862 4 9.99664C4 9.20706 4.00168 9.17637 4.04842 9.11381C4.07505 9.07816 4.1226 9.02986 4.15409 9.00648C4.18654 8.98238 4.50138 8.89276 4.88063 8.79966C5.24873 8.7093 5.57104 8.62609 5.59687 8.61476C5.62667 8.60169 5.66465 8.5352 5.70079 8.43287C5.73212 8.34416 5.79255 8.19516 5.83507 8.10177L5.91239 7.93195L5.55937 7.34459C5.36391 7.01937 5.20052 6.72127 5.19327 6.67666C5.16086 6.47701 5.17577 6.45556 5.74505 5.8831C6.31252 5.31245 6.4103 5.23862 6.56531 5.26376C6.6149 5.2718 6.8865 5.41915 7.21944 5.61864C7.53258 5.80626 7.80037 5.95976 7.81454 5.95976C7.82871 5.95976 7.93787 5.91426 8.05713 5.85865C8.17639 5.80304 8.34663 5.73196 8.43544 5.70071C8.53951 5.66408 8.60416 5.62702 8.61728 5.59646C8.62849 5.57038 8.71189 5.24803 8.80261 4.88013C8.89397 4.50965 8.98636 4.1857 9.0097 4.15401C9.03287 4.12253 9.08101 4.075 9.11668 4.04839C9.17927 4.00168 9.20997 4 10 4C10.79 4 10.8207 4.00168 10.8833 4.04839C10.919 4.075 10.9676 4.12277 10.9913 4.15453C11.0163 4.18802 11.1032 4.49311 11.1981 4.88066C11.2882 5.24827 11.3711 5.57038 11.3825 5.59646C11.3957 5.62693 11.4608 5.66417 11.5646 5.70065C11.6534 5.73188 11.8134 5.79767 11.9202 5.84686C12.027 5.89605 12.1257 5.93629 12.1397 5.93629C12.1536 5.93629 12.3885 5.80206 12.6617 5.63799C13.3041 5.25229 13.3146 5.24734 13.4495 5.26746C13.5525 5.28282 13.584 5.30962 14.1066 5.82704C14.6896 6.4043 14.7621 6.49975 14.7334 6.65265C14.7253 6.69547 14.5677 6.98273 14.3831 7.291L14.0475 7.8515L14.1446 8.06154C14.198 8.17706 14.2672 8.3442 14.2984 8.43296C14.335 8.53684 14.3721 8.60165 14.4026 8.61485C14.4287 8.62613 14.7513 8.7093 15.1194 8.79966C15.4986 8.89276 15.8135 8.98238 15.8459 9.00648C15.8774 9.02986 15.925 9.07816 15.9516 9.11381C15.9983 9.17637 16 9.20706 16 9.99664C16 10.7862 15.9983 10.8169 15.9516 10.8795C15.925 10.9151 15.8774 10.9634 15.8459 10.9868C15.8135 11.0109 15.4986 11.1005 15.1194 11.1936C14.7513 11.284 14.4289 11.3671 14.403 11.3783C14.3749 11.3904 14.3382 11.4496 14.3119 11.5249C14.2877 11.5944 14.2205 11.7585 14.1625 11.8895L14.057 12.1277L14.3777 12.6612C14.5542 12.9546 14.7104 13.2392 14.725 13.2936C14.7697 13.4608 14.7133 13.5384 14.1158 14.1319C13.543 14.7008 13.5216 14.7157 13.3218 14.6833C13.2774 14.6761 13.0012 14.5262 12.708 14.3501L12.1748 14.0299L11.9152 14.1454C11.7724 14.2089 11.5987 14.281 11.5292 14.3055C11.454 14.3321 11.3945 14.3692 11.3825 14.3972C11.3714 14.4231 11.2881 14.7453 11.1974 15.1131C11.106 15.4836 11.0136 15.8076 10.9903 15.8393C10.9671 15.8708 10.919 15.9183 10.8834 15.9449C10.8213 15.9913 10.7854 15.9935 10.0277 15.9987C9.40589 16.003 9.22148 15.9974 9.16518 15.9725ZM10.5284 12.4042C11.4557 12.196 12.212 11.4341 12.4124 10.5062C12.4689 10.2444 12.4689 9.74884 12.4124 9.4871C12.2104 8.55179 11.4457 7.78751 10.5098 7.5856C10.2479 7.5291 9.75206 7.5291 9.49017 7.5856C8.55434 7.78751 7.78963 8.55179 7.58761 9.4871C7.53107 9.74884 7.53107 10.2444 7.58761 10.5062C7.78863 11.4368 8.57814 12.228 9.47843 12.4009C9.57801 12.42 9.68063 12.4408 9.70646 12.4471C9.8 12.4698 10.3679 12.4402 10.5284 12.4042Z" fill="#212B61"/>
</svg>
